<?xml version="1.0" encoding="UTF-8"?>
<!DOCTYPE svg PUBLIC "-//W3C//DTD SVG 1.1//EN" "http://www.w3.org/Graphics/SVG/1.1/DTD/svg11.dtd">
<!-- Creator: CorelDRAW X7 -->
<svg xmlns="http://www.w3.org/2000/svg" xml:space="preserve" width="205.9mm" height="93.3817mm" version="1.1" style="shape-rendering:geometricPrecision; text-rendering:geometricPrecision; image-rendering:optimizeQuality; fill-rule:evenodd; clip-rule:evenodd"
viewBox="0 0 19728 8947"
 xmlns:xlink="http://www.w3.org/1999/xlink">
 <defs>
  <style type="text/css">
   <![CDATA[
    .fil4 {fill:#F7AB05;fill-rule:nonzero}
    .fil1 {fill:url(#id0);fill-rule:nonzero}
    .fil0 {fill:url(#id1);fill-rule:nonzero}
    .fil2 {fill:url(#id2);fill-rule:nonzero}
    .fil3 {fill:url(#id3);fill-rule:nonzero}
   ]]>
  </style>
  <linearGradient id="id0" gradientUnits="userSpaceOnUse" x1="16673.8" y1="3054.1" x2="18419" y2="1308.94">
   <stop offset="0" style="stop-opacity:1; stop-color:#F7AB05"/>
   <stop offset="1" style="stop-opacity:1; stop-color:#DDB104"/>
  </linearGradient>
  <linearGradient id="id1" gradientUnits="userSpaceOnUse" x1="16673.9" y1="3053.99" x2="18419" y2="1308.89">
   <stop offset="0" style="stop-opacity:1; stop-color:#F7AB05"/>
   <stop offset="1" style="stop-opacity:1; stop-color:#FDE902"/>
  </linearGradient>
  <linearGradient id="id2" gradientUnits="userSpaceOnUse" x1="6893.18" y1="7907.22" x2="10087.4" y2="2369.74">
   <stop offset="0" style="stop-opacity:1; stop-color:#282829"/>
   <stop offset="1" style="stop-opacity:1; stop-color:#5E5E5E"/>
  </linearGradient>
  <linearGradient id="id3" gradientUnits="userSpaceOnUse" xlink:href="#id2" x1="6893.76" y1="7908.92" x2="10086.8" y2="2373.49">
  </linearGradient>
 </defs>
 <g id="Layer_x0020_1">
  <metadata id="CorelCorpID_0Corel-Layer"/>
  <g id="_562211032">
   <g>
    <path class="fil0" d="M17544 3188c115,-213 261,-408 431,-578 170,-170 365,-316 578,-431 -213,-116 -408,-261 -578,-431 -170,-170 -316,-365 -431,-579 -115,214 -261,409 -431,579 -170,170 -365,315 -579,431 214,115 409,261 579,431 170,170 316,365 431,578zm853 -156c-342,341 -554,811 -556,1330l-594 1 0 -4 0 -1c-4,-517 -215,-986 -556,-1326 -341,-341 -809,-553 -1326,-556l0 -595c517,-3 985,-215 1326,-555 340,-341 552,-809 556,-1326l594 0c3,517 215,985 556,1326 340,340 809,552 1326,555l1 0 4 1 -1 594c-519,2 -989,214 -1330,556z"/>
    <path class="fil1" d="M17544 3188c115,-213 261,-408 431,-578 170,-170 365,-316 578,-431 -213,-115 -408,-261 -578,-431 -170,-170 -316,-365 -431,-579 -115,214 -261,409 -431,579 -170,170 -365,316 -579,431 214,115 409,261 579,431 170,170 316,365 431,578zm853 -156c-342,341 -554,811 -556,1330l-594 1 -1 -4 0 -1c-3,-517 -214,-986 -555,-1326 -341,-341 -809,-553 -1326,-556l0 -595c517,-3 985,-214 1326,-555 340,-341 552,-809 555,-1326l0 0c13,1588 1422,2536 2476,2480l2 -599 4 1 -1 594c-519,2 -989,214 -1330,556z"/>
   </g>
   <path class="fil2" d="M2332 2661c644,0 1227,262 1649,684 385,384 635,903 677,1479l6 0 0 169 0 2327 -602 0 0 -763c-26,29 -53,58 -81,85 -422,422 -1005,683 -1649,683 -644,0 -1227,-261 -1649,-683 -422,-422 -683,-1005 -683,-1649 0,-643 261,-1226 683,-1648 422,-422 1005,-684 1649,-684zm7326 2628l0 0 0 56 0 0c-15,622 -273,1183 -683,1593 -422,422 -1005,683 -1649,683 -644,0 -1227,-261 -1649,-683 -412,-412 -670,-978 -682,-1604l-1 0 0 -45 0 -465 602 0 0 465c0,478 194,910 507,1223 313,313 746,507 1223,507 478,0 911,-194 1224,-507 313,-313 506,-745 506,-1223l0 0 0 -2031 602 0 0 2031zm933 -1558c26,-29 53,-58 81,-86 422,-422 1005,-683 1649,-683l0 0 0 602 0 0c-478,0 -911,194 -1224,507 -313,313 -506,746 -506,1223l0 0 0 2031 -602 0 0 -4067 602 0 0 473zm6390 1088l0 169 0 2326 -602 0 0 -762c-27,29 -54,57 -81,85 -422,422 -1006,683 -1649,683 -644,0 -1227,-261 -1649,-683 -422,-422 -683,-1005 -683,-1649 0,-644 261,-1227 683,-1649 422,-422 1005,-683 1649,-683 644,0 1227,261 1649,683 384,385 635,903 677,1480l6 0zm-1109 -1054c-313,-313 -746,-507 -1223,-507 -478,0 -911,194 -1224,507 -313,313 -506,745 -506,1223 0,478 193,910 506,1223 313,313 746,507 1224,507 477,0 910,-194 1223,-507 313,-313 507,-745 507,-1223 0,-478 -194,-910 -507,-1223zm-12317 5c-313,-313 -745,-507 -1223,-507 -478,0 -910,194 -1223,507 -313,313 -507,746 -507,1223 0,478 194,911 507,1224 313,313 745,506 1223,506 478,0 910,-193 1223,-506 313,-313 507,-746 507,-1224 0,-477 -194,-910 -507,-1223z"/>
   <path class="fil3" d="M2332 2661c644,0 1227,262 1649,684 385,384 635,903 677,1479l6 0 0 169 0 2327 -602 0 0 -763c-26,29 -53,58 -81,85 -422,422 -1005,683 -1649,683 -644,0 -1227,-261 -1649,-683 -422,-422 -683,-1005 -683,-1649 0,-643 261,-1226 683,-1648 422,-422 1005,-684 1649,-684zm7326 2628l0 0 0 56 0 0c-15,622 -273,1183 -683,1593 -422,422 -1005,683 -1649,683 -644,0 -1227,-261 -1649,-683 -412,-412 -670,-978 -682,-1604l-1 0 0 -45 0 -2025 602 0 0 2025c0,478 194,910 507,1223 313,313 746,507 1223,507 478,0 911,-194 1224,-507 313,-313 506,-745 506,-1223l0 0 0 -2031 602 0 0 2031zm933 -1558c26,-29 53,-58 81,-86 422,-422 1005,-683 1649,-683l0 0 0 602 0 0c-478,0 -911,194 -1224,507 -313,313 -506,746 -506,1223l0 0 0 2031 -602 0 0 -4067 602 0 0 473zm6390 1604l0 1979 -602 0 0 -762c-27,29 -54,57 -81,85 -422,422 -1006,683 -1649,683 -644,0 -1227,-261 -1649,-683 -422,-422 -683,-1005 -683,-1649 0,-644 261,-1227 683,-1649 341,-341 787,-577 1286,-655l0 612c-332,71 -629,237 -861,469 -313,313 -506,745 -506,1223 0,478 193,910 506,1223 313,313 746,507 1224,507 477,0 910,-194 1223,-507 235,-235 403,-537 472,-876l637 0zm-13426 -1565c-313,-313 -745,-507 -1223,-507 -478,0 -910,194 -1223,507 -313,313 -507,746 -507,1223 0,478 194,911 507,1224 313,313 745,506 1223,506 478,0 910,-193 1223,-506 313,-313 507,-746 507,-1224 0,-477 -194,-910 -507,-1223z"/>
   <path class="fil4" d="M13365 8514l0 243c-23,29 -58,59 -105,88 -47,30 -103,54 -168,73 -66,20 -138,29 -216,29 -112,0 -210,-22 -294,-65 -83,-44 -148,-106 -194,-187 -46,-81 -70,-176 -70,-286 0,-110 23,-205 69,-285 46,-79 111,-141 196,-185 85,-43 186,-65 302,-65 54,0 106,4 157,11 51,7 99,17 142,29 43,11 79,25 108,41l2 252 -13 0c-18,-67 -45,-120 -81,-160 -35,-40 -76,-68 -123,-85 -47,-18 -96,-26 -148,-26 -81,0 -149,19 -204,58 -55,39 -96,94 -124,166 -28,72 -42,158 -42,258 0,94 13,177 39,247 26,70 64,124 114,162 50,38 111,57 183,58 36,0 71,-5 105,-17 34,-11 64,-27 90,-49 25,-22 43,-48 54,-80l2 -225c0,-45 -25,-67 -76,-67l-23 0 0 -14 414 0 0 14 -22 0c-51,0 -76,22 -74,67zm827 -640c118,0 220,22 307,65 87,44 155,106 202,185 48,80 72,175 72,287 0,110 -24,205 -72,285 -47,80 -115,142 -202,186 -87,43 -189,65 -307,65 -118,0 -220,-22 -307,-65 -87,-44 -155,-106 -202,-185 -47,-80 -70,-175 -70,-286 0,-111 23,-206 70,-286 47,-80 115,-142 202,-186 87,-43 189,-65 307,-65zm0 1011c70,0 130,-19 181,-58 50,-39 89,-94 116,-164 27,-71 41,-155 41,-252 0,-98 -14,-182 -41,-253 -27,-70 -66,-125 -116,-164 -51,-39 -111,-58 -181,-58 -69,0 -129,19 -179,58 -51,39 -90,94 -117,164 -28,71 -42,155 -42,253 0,97 14,181 42,252 27,70 66,125 117,164 50,39 110,58 179,58zm1067 -991l0 1033 -221 0 0 -1033 221 0zm389 969l36 64 -429 0 0 -64 393 0zm108 -237l-68 301 -289 0 53 -64c49,0 93,-9 130,-29 37,-19 69,-46 96,-82 26,-36 47,-78 63,-126l15 0zm-714 193l0 108 -118 0 0 -15c0,0 3,0 10,0 6,0 9,0 9,0 26,0 48,-9 66,-27 18,-19 28,-41 29,-66l4 0zm0 -817l-4 0c-1,-25 -11,-47 -29,-66 -18,-18 -40,-27 -66,-27 0,0 -3,0 -9,0 -7,0 -10,0 -10,0l0 -15 118 0 0 108zm213 0l0 -108 118 0 0 15c-1,0 -5,0 -11,0 -6,0 -9,0 -9,0 -25,0 -47,9 -65,27 -18,19 -28,41 -29,66l-4 0zm1161 -108c116,0 216,21 301,63 84,42 149,101 195,179 46,77 69,168 69,275 0,106 -23,197 -69,274 -46,78 -111,137 -195,179 -85,42 -185,63 -301,63l-351 0 -1 -62c28,0 58,0 89,0 31,0 61,0 90,0 29,0 55,0 79,0 23,0 42,0 56,0 13,0 20,0 20,0 71,0 132,-19 183,-56 51,-37 90,-89 118,-157 28,-68 41,-148 41,-241 0,-94 -13,-174 -41,-242 -28,-68 -67,-120 -118,-157 -51,-37 -112,-56 -183,-56 0,0 -7,0 -21,0 -14,0 -34,0 -58,0 -25,0 -52,0 -83,0 -30,0 -62,0 -94,0 -33,0 -64,0 -93,0l0 -62 367 0zm-201 0l0 1033 -221 0 0 -1033 221 0zm-216 925l0 108 -118 0 0 -15c0,0 3,0 9,0 7,0 10,0 10,0 25,0 47,-9 66,-27 18,-19 27,-41 28,-66l5 0zm0 -817l-5 0c0,-25 -9,-47 -28,-66 -18,-18 -41,-27 -66,-27 0,0 -3,0 -9,0 -6,0 -9,0 -9,0l-1 -15 118 0 0 108z"/>
  </g>
 </g>
</svg>
