<svg width="216" height="96" viewBox="0 0 216 96" fill="none" xmlns="http://www.w3.org/2000/svg">
<path d="M192.016 34.6872C193.285 32.3634 194.884 30.2404 196.749 28.3919C198.614 26.5435 200.757 24.9591 203.102 23.7022C200.757 22.4452 198.614 20.8714 196.749 19.0124C194.884 17.164 193.285 15.041 192.016 12.7172C190.759 15.041 189.16 17.164 187.284 19.0124C185.418 20.8714 183.286 22.4452 180.931 23.7022C183.286 24.9591 185.418 26.5435 187.284 28.3919C189.16 30.2404 190.759 32.3634 192.016 34.6872ZM201.386 32.9866C197.634 36.694 195.31 41.8168 195.278 47.4572L188.755 47.4677V47.4255V47.4044C188.723 41.7851 186.399 36.694 182.657 32.9866C178.916 29.2792 173.767 26.9765 168.097 26.9343V20.4701C173.767 20.4384 178.916 18.1358 182.657 14.4283C186.399 10.7209 188.723 5.61923 188.755 0H195.278C195.321 5.61923 197.644 10.7209 201.386 14.4283C205.127 18.1358 210.265 20.4384 215.936 20.4701H215.957H216L215.989 26.9343C210.297 26.966 205.127 29.2686 201.386 32.9866Z" fill="url(#paint0_linear_179_215)"/>
<path d="M192.016 34.6872C193.285 32.3634 194.884 30.2404 196.749 28.3919C198.614 26.5435 200.757 24.9591 203.102 23.7022C200.757 22.4558 198.614 20.8714 196.749 19.0124C194.884 17.164 193.285 15.0515 192.016 12.7172C190.759 15.0515 189.16 17.164 187.284 19.0124C185.418 20.8714 183.286 22.4558 180.931 23.7022C183.286 24.9591 185.418 26.5435 187.284 28.3919C189.16 30.2404 190.759 32.3634 192.016 34.6872ZM201.386 32.9866C197.634 36.694 195.31 41.8168 195.278 47.4572L188.755 47.4677V47.4255V47.4044C188.723 41.7851 186.399 36.694 182.657 32.9866C178.916 29.2792 173.767 26.9765 168.097 26.9343V20.4701C173.767 20.4384 178.916 18.1358 182.657 14.4283C186.388 10.7209 188.723 5.61923 188.755 0C188.893 17.2802 204.371 27.5892 215.936 26.9871L215.947 20.4701H216L215.989 26.9343C210.297 26.966 205.127 29.2686 201.386 32.9866Z" fill="url(#paint1_linear_179_215)"/>
<path d="M25.5401 28.8055C32.5897 28.8055 38.9801 31.6657 43.5947 36.2804C47.816 40.491 50.5593 46.169 51.0165 52.4849H51.0803V54.3456V79.822H44.4879V71.4645C44.2008 71.7835 43.9031 72.0919 43.5947 72.4002C38.9801 77.0255 32.5897 79.8858 25.5401 79.8858C18.4905 79.8858 12.1002 77.0255 7.48553 72.4002C2.86024 67.7749 0 61.3952 0 54.3456C0 47.2854 2.86024 40.9057 7.48553 36.2804C12.1002 31.6657 18.4905 28.8055 25.5401 28.8055ZM105.776 57.578V58.1947H105.765C105.606 64.9998 102.777 71.1562 98.3008 75.6326C93.6755 80.2579 87.2852 83.1182 80.2356 83.1182C73.186 83.1182 66.7956 80.2579 62.181 75.6326C57.662 71.1243 54.8337 64.9253 54.7061 58.0671H54.6954V57.578V35.3341H61.2878V52.4849V57.578C61.2878 62.8094 63.4144 67.5516 66.8382 70.9754C70.2619 74.3992 75.0042 76.5258 80.2356 76.5258C85.4669 76.5258 90.2092 74.4098 93.633 70.9754C97.0674 67.5516 99.1833 62.8094 99.1833 57.578V35.3341H105.776V57.578ZM115.994 40.5123C116.281 40.1933 116.568 39.8849 116.876 39.5766C121.502 34.9513 127.881 32.1017 134.931 32.1017V38.6941C129.7 38.6941 124.968 40.81 121.534 44.2338C118.11 47.6682 115.994 52.3998 115.994 57.6312V57.6418V79.8858H109.391V35.3341H115.994V40.5123ZM185.969 52.4317V54.2818V79.7582H179.376V71.4114C179.089 71.7304 178.792 72.0387 178.494 72.3364C173.869 76.9617 167.478 79.822 160.429 79.822C153.379 79.822 146.999 76.9617 142.374 72.3364C137.749 67.7218 134.888 61.3314 134.888 54.2818C134.888 47.2322 137.749 40.8419 142.374 36.2272C146.999 31.6019 153.379 28.7417 160.429 28.7417C167.489 28.7417 173.869 31.6019 178.494 36.2272C182.704 40.4378 185.448 46.1158 185.905 52.4317H185.969ZM173.826 40.8844C170.402 37.4606 165.66 35.3341 160.429 35.3341C155.197 35.3341 150.466 37.4606 147.031 40.8844C143.607 44.3082 141.481 49.0505 141.481 54.2818C141.481 59.5132 143.607 64.2555 147.031 67.6792C150.466 71.103 155.197 73.2296 160.429 73.2296C165.66 73.2296 170.402 71.103 173.826 67.6792C177.26 64.2555 179.376 59.5132 179.376 54.2818C179.376 49.0505 177.26 44.3082 173.826 40.8844ZM38.9375 40.9482C35.5138 37.5138 30.7715 35.3979 25.5401 35.3979C20.3088 35.3979 15.5665 37.5138 12.1427 40.9482C8.71895 44.372 6.59237 49.1036 6.59237 54.3456C6.59237 59.577 8.71895 64.3086 12.1427 67.743C15.5665 71.1668 20.3088 73.2828 25.5401 73.2828C30.7715 73.2828 35.5138 71.1668 38.9375 67.743C42.3613 64.3086 44.4879 59.577 44.4879 54.3456C44.4879 49.1036 42.3613 44.372 38.9375 40.9482Z" fill="url(#paint2_linear_179_215)"/>
<g clip-path="url(#clip0_179_215)">
<path d="M146.899 90.6746V93.6169C146.636 93.9775 146.233 94.3325 145.701 94.6874C145.175 95.048 144.535 95.3399 143.794 95.5746C143.052 95.8036 142.23 95.9238 141.338 95.9238C140.065 95.9238 138.953 95.6548 138.002 95.1281C137.056 94.5958 136.315 93.8459 135.794 92.867C135.267 91.8939 135.004 90.7376 135.004 89.4038C135.004 88.07 135.262 86.9251 135.783 85.9577C136.304 84.996 137.046 84.2462 138.013 83.7195C138.98 83.1871 140.119 82.9238 141.441 82.9238C142.053 82.9238 142.649 82.9696 143.23 83.0555C143.815 83.1471 144.347 83.2616 144.842 83.4047C145.33 83.5478 145.739 83.7138 146.067 83.9084L146.099 86.9595H145.948C145.733 86.1466 145.427 85.5055 145.024 85.0189C144.621 84.5381 144.154 84.1946 143.627 83.9886C143.095 83.7768 142.531 83.6737 141.94 83.6737C141.027 83.6737 140.253 83.9084 139.63 84.3778C139.001 84.8472 138.534 85.517 138.211 86.3871C137.894 87.2572 137.733 88.299 137.733 89.5126C137.733 90.6517 137.884 91.6535 138.179 92.5007C138.475 93.3536 138.91 94.0062 139.479 94.4641C140.049 94.9221 140.742 95.1568 141.559 95.1739C141.967 95.1739 142.37 95.1052 142.757 94.9679C143.138 94.8305 143.477 94.6301 143.767 94.3668C144.057 94.1035 144.267 93.7829 144.39 93.4051L144.406 90.6746C144.406 90.1365 144.122 89.8675 143.552 89.8675H143.283V89.69H147.99V89.8675H147.738C147.157 89.8675 146.878 90.1365 146.899 90.6746ZM156.296 82.9238C157.64 82.9238 158.806 83.1871 159.794 83.7195C160.783 84.2462 161.546 84.996 162.088 85.9577C162.631 86.9251 162.9 88.0757 162.9 89.421C162.9 90.7547 162.631 91.9053 162.088 92.8785C161.546 93.8459 160.783 94.5958 159.794 95.1281C158.806 95.6548 157.64 95.9238 156.296 95.9238C154.959 95.9238 153.793 95.6548 152.804 95.1281C151.816 94.5958 151.053 93.8516 150.515 92.8842C149.978 91.9225 149.715 90.7662 149.715 89.421C149.715 88.0872 149.978 86.9366 150.515 85.9692C151.053 84.996 151.816 84.2462 152.804 83.7195C153.793 83.1871 154.959 82.9238 156.296 82.9238ZM156.296 95.1739C157.092 95.1739 157.774 94.9392 158.349 94.4641C158.924 93.9947 159.37 93.3307 159.676 92.4778C159.982 91.6191 160.138 90.6002 160.138 89.421C160.138 88.2417 159.982 87.2285 159.676 86.3699C159.37 85.5112 158.924 84.8472 158.349 84.3778C157.774 83.9084 157.092 83.6737 156.296 83.6737C155.517 83.6737 154.835 83.9084 154.26 84.3778C153.685 84.8472 153.245 85.5112 152.928 86.3699C152.616 87.2285 152.46 88.2417 152.46 89.421C152.46 90.6002 152.616 91.6191 152.928 92.4778C153.245 93.3307 153.685 93.9947 154.26 94.4641C154.835 94.9392 155.517 95.1739 156.296 95.1739ZM168.428 83.1757V95.672H165.914V83.1757H168.428ZM172.85 94.9049L173.253 95.672H168.375V94.9049H172.85ZM174.075 92.0313L173.301 95.672H170.019L170.62 94.9049C171.179 94.9049 171.674 94.7904 172.098 94.5557C172.522 94.321 172.882 93.989 173.183 93.5539C173.484 93.1189 173.726 92.6152 173.903 92.0313H174.075ZM165.962 94.3668V95.672H164.624V95.4945C164.624 95.4945 164.657 95.4945 164.732 95.4945C164.802 95.4945 164.839 95.4945 164.839 95.4945C165.129 95.4945 165.377 95.38 165.586 95.1625C165.79 94.945 165.903 94.6759 165.914 94.3668H165.962ZM165.962 84.4751H165.914C165.903 84.166 165.79 83.9027 165.586 83.6852C165.377 83.4619 165.129 83.3532 164.839 83.3532C164.839 83.3532 164.802 83.3532 164.732 83.3532C164.657 83.3532 164.624 83.3532 164.624 83.3532V83.1757H165.962V84.4751ZM168.375 84.4751V83.1757H169.718V83.3532C169.707 83.3532 169.664 83.3532 169.6 83.3532C169.53 83.3532 169.498 83.3532 169.498 83.3532C169.207 83.3532 168.96 83.4619 168.751 83.6852C168.547 83.9027 168.439 84.166 168.428 84.4751H168.375ZM181.576 83.1757C182.892 83.1757 184.031 83.4276 184.993 83.9313C185.955 84.4408 186.696 85.1563 187.217 86.0951C187.733 87.0282 187.996 88.1387 187.996 89.421C187.996 90.7089 187.733 91.8195 187.217 92.7525C186.696 93.6856 185.955 94.4069 184.993 94.9106C184.031 95.4201 182.892 95.672 181.576 95.672H177.589L177.573 94.9221C177.895 94.9221 178.234 94.9221 178.583 94.9221C178.938 94.9221 179.276 94.9221 179.609 94.9221C179.937 94.9221 180.238 94.9221 180.501 94.9221C180.77 94.9221 180.985 94.9221 181.14 94.9221C181.296 94.9221 181.377 94.9221 181.377 94.9221C182.177 94.9221 182.87 94.6988 183.451 94.2523C184.031 93.8058 184.482 93.1704 184.794 92.3518C185.106 91.5275 185.261 90.5544 185.261 89.421C185.261 88.2933 185.106 87.3144 184.794 86.4958C184.482 85.6715 184.031 85.0418 183.451 84.5953C182.87 84.1488 182.177 83.9256 181.377 83.9256C181.377 83.9256 181.296 83.9256 181.13 83.9256C180.969 83.9256 180.748 83.9256 180.469 83.9256C180.189 83.9256 179.878 83.9256 179.534 83.9256C179.185 83.9256 178.83 83.9256 178.459 83.9256C178.089 83.9256 177.739 83.9256 177.401 83.9256V83.1757H181.576ZM179.298 83.1757V95.672H176.783V83.1757H179.298ZM176.831 94.3668V95.672H175.494V95.4945C175.494 95.4945 175.531 95.4945 175.601 95.4945C175.676 95.4945 175.709 95.4945 175.709 95.4945C175.999 95.4945 176.251 95.38 176.455 95.1625C176.665 94.945 176.772 94.6759 176.783 94.3668H176.831ZM176.831 84.4751H176.783C176.783 84.166 176.676 83.9027 176.466 83.6852C176.251 83.4619 175.999 83.3532 175.709 83.3532C175.709 83.3532 175.676 83.3532 175.612 83.3532C175.542 83.3532 175.51 83.3532 175.51 83.3532L175.494 83.1757H176.831V84.4751Z" fill="#F7AB05"/>
</g>
<defs>
<linearGradient id="paint0_linear_179_215" x1="182.467" y1="33.2259" x2="201.453" y2="14.0667" gradientUnits="userSpaceOnUse">
<stop stop-color="#F7AB05"/>
<stop offset="1" stop-color="#FDE902"/>
</linearGradient>
<linearGradient id="paint1_linear_179_215" x1="182.467" y1="33.2271" x2="201.452" y2="14.0673" gradientUnits="userSpaceOnUse">
<stop stop-color="#F7AB05"/>
<stop offset="1" stop-color="#DDB104"/>
</linearGradient>
<linearGradient id="paint2_linear_179_215" x1="75.4941" y1="86.253" x2="110.478" y2="25.6066" gradientUnits="userSpaceOnUse">
<stop stop-color="#E0E0E0"/>
<stop offset="1" stop-color="white"/>
</linearGradient>
<clipPath id="clip0_179_215">
<rect width="53" height="13" fill="white" transform="translate(135 82.9238)"/>
</clipPath>
</defs>
</svg>
